# xmcd CD database file
#
# Track frame offsets:
#	150
#	19795
#	33190
#	39808
#	57203
#	72135
#	90253
#	101710
#	117813
#	131600
#
# Disc length: 1944 seconds
#
# Revision: 0
# Processed by: cddbd v1.4PL0 Copyright (c) Steve Scherf et al.
# Submitted via: CDex 1.50Beta7
#
DISCID=7107960a
DTITLE=The Great Benny Goodman and His Orchestra - Jazz in Jazz
DYEAR=1900
DGENRE=Jazz
TTITLE0=Indiana, Mac Donald
TTITLE1=Confessin', Neiburg, Reynolds
TTITLE2=Little White Lies, Donaldson
TTITLE3=Mel's Idea, Goodman
TTITLE4=No Love No Nothing, Gooman
TTITLE5=Speak Low, Nash
TTITLE6=Don't Be That Way, Parish, Goodman
TTITLE7=Stealling Apples, Waller-Razaf
TTITLE8=By The Blues, Goodman
TTITLE9=I'm Just WIld, Goodman
EXTD=
EXTT0=
EXTT1=
EXTT2=
EXTT3=
EXTT4=
EXTT5=
EXTT6=
EXTT7=
EXTT8=
EXTT9=
PLAYORDER=
